<svg width="44" height="40" viewBox="0 0 44 40" fill="none" xmlns="http://www.w3.org/2000/svg">
<path d="M17.8887 5.87939C18.5096 5.53179 19.3095 5.41127 20.0146 5.68408C20.4777 5.86308 20.7993 6.04639 21.0459 6.36182C21.288 6.67145 21.4471 7.09455 21.6221 7.72314C21.6317 7.75779 21.6458 7.77904 21.6699 7.79736C21.6984 7.81905 21.7502 7.84316 21.8467 7.86377C22.0424 7.90556 22.3666 7.92139 22.9082 7.92139C23.7466 7.92139 24.3042 7.9555 24.7041 8.07471C25.1196 8.19865 25.3632 8.41377 25.5771 8.74854L25.6807 8.90674C25.7102 8.9487 25.7369 8.9808 25.7656 9.0083C25.8157 9.05615 25.8782 9.09358 25.999 9.12158C26.1254 9.15082 26.3068 9.16797 26.5879 9.18018C26.8673 9.19231 27.2358 9.19948 27.7334 9.2085L29.5029 9.24072H29.542L29.5752 9.26025L29.8643 9.43213C30.0761 9.55758 30.2548 9.67431 30.3945 9.82764C30.5376 9.98474 30.633 10.1723 30.6973 10.4292C30.822 10.9282 30.835 11.7246 30.835 13.1528C30.835 13.7895 30.8352 14.2662 30.8291 14.6235C30.823 14.9788 30.8104 15.2251 30.7822 15.397C30.7543 15.5673 30.7069 15.6948 30.6055 15.7798C30.5129 15.8571 30.3899 15.8812 30.2959 15.9048C30.1764 15.9348 30.026 15.9649 29.8965 15.8921C29.7632 15.817 29.7019 15.6639 29.665 15.48C29.6266 15.2883 29.6063 15.0139 29.5947 14.6323C29.5831 14.2485 29.5804 13.7472 29.5801 13.0981C29.5798 12.3365 29.5873 11.7864 29.5635 11.3823C29.5393 10.9723 29.4832 10.752 29.3848 10.6245C29.2947 10.508 29.1467 10.4428 28.8447 10.4165C28.5409 10.3901 28.1274 10.4058 27.541 10.4136C27.0983 10.4194 26.7742 10.4228 26.5332 10.436C26.2883 10.4494 26.1496 10.4727 26.0664 10.5083C26.0287 10.5245 26.0065 10.5418 25.9912 10.5591C25.9756 10.5769 25.9609 10.6019 25.9482 10.6411C25.9202 10.7284 25.9097 10.8506 25.8896 11.0513C25.8474 11.4723 25.8144 11.829 25.6738 12.1021C25.5235 12.394 25.2624 12.5745 24.8242 12.689C24.393 12.8015 23.7687 12.8553 22.8604 12.8823C21.9491 12.9094 20.7383 12.9097 19.1289 12.9097H13.9727L13.9434 12.896L13.5977 12.7378C12.9094 12.422 12.4297 11.7035 12.4297 10.9722C12.4297 10.793 12.4249 10.6866 12.4004 10.6138C12.3819 10.559 12.3521 10.5209 12.2686 10.4888C12.1722 10.4517 12.0159 10.4284 11.7578 10.4155C11.5031 10.4028 11.1654 10.4009 10.7139 10.4009C10.0644 10.4009 9.71065 10.4043 9.49023 10.4214C9.33203 10.4336 9.24998 10.4518 9.17871 10.481L9.1084 10.5142C9.06922 10.5342 9.03331 10.5471 9.00488 10.5571C8.97367 10.5681 8.95772 10.5736 8.94238 10.5806C8.92601 10.588 8.91471 10.5945 8.89844 10.6284C8.87664 10.6738 8.85213 10.7597 8.83105 10.9282C8.81033 11.094 8.794 11.3279 8.78125 11.6606C8.73017 12.9941 8.73926 15.8544 8.73926 22.0913C8.73926 28.2731 8.73155 31.127 8.77832 32.4702C8.78999 32.8052 8.80528 33.0429 8.82422 33.2134C8.8434 33.3859 8.86522 33.4798 8.88672 33.5327C8.90463 33.5767 8.91942 33.5863 8.93262 33.5942C8.94494 33.6016 8.95851 33.6081 8.98535 33.6206C9.01016 33.6322 9.04209 33.6477 9.07715 33.6694L9.26074 33.7827H29.1504L29.5791 33.3521L29.6377 28.7632V28.7378L29.6475 28.7134C29.7042 28.5643 29.8157 28.4436 29.9424 28.3706C30.0672 28.2987 30.2274 28.2628 30.375 28.3188C30.4528 28.3485 30.5634 28.3821 30.6436 28.4634C30.7297 28.5509 30.7688 28.6749 30.792 28.8423C30.8381 29.1751 30.835 29.815 30.835 31.0962V33.4976L30.8213 33.5269L30.666 33.8628C30.4489 34.3318 30.1281 34.6566 29.668 34.8677V34.8667L29.3213 35.0259L29.292 35.0396H29.2607L9.0752 35.0288H9.04395L9.01465 35.0161L8.66113 34.855C8.43215 34.7511 8.24961 34.6395 8.09473 34.4956C7.93967 34.3515 7.81844 34.1802 7.7041 33.9644L7.5332 33.6431L7.51562 33.6108V10.5718L7.5332 10.5405L7.7041 10.2183C7.81445 10.0103 7.91641 9.83605 8.04395 9.69775C8.17548 9.55513 8.32965 9.45465 8.53906 9.38525C8.74399 9.31737 9.00114 9.27913 9.33691 9.25439C9.67361 9.22961 10.0998 9.21862 10.6465 9.2085C11.1417 9.19947 11.5062 9.19356 11.7812 9.18213C12.0579 9.17063 12.2336 9.15383 12.3555 9.12549C12.4713 9.09851 12.5311 9.0628 12.5801 9.01514C12.6374 8.95933 12.6847 8.88334 12.7725 8.75049C12.9971 8.41079 13.2295 8.19328 13.6328 8.06982C14.0191 7.95166 14.5584 7.92139 15.3887 7.92139H16.5078L16.6523 7.77588C16.7559 7.67207 16.7977 7.57203 16.7979 7.51025V7.50928C16.7984 6.81699 17.2697 6.22594 17.8887 5.87939ZM15.5625 9.17822C15.0713 9.17822 14.7067 9.18114 14.4326 9.20459C14.1553 9.22833 13.9947 9.2719 13.8965 9.33643C13.8091 9.39391 13.7555 9.47934 13.7236 9.64014C13.6903 9.80847 13.6855 10.0373 13.6855 10.3628C13.6855 10.8156 13.7022 11.0685 13.7529 11.2329C13.7769 11.3106 13.8075 11.3654 13.8467 11.4106C13.8853 11.4553 13.9371 11.4957 14.0107 11.5415C14.0141 11.5423 14.0186 11.5433 14.0244 11.5444C14.0459 11.5485 14.0772 11.5535 14.1191 11.5581C14.2029 11.5672 14.3204 11.5752 14.4678 11.5835C14.7619 11.6001 15.1685 11.6154 15.6514 11.6274C16.617 11.6515 17.8829 11.6657 19.1504 11.6694C20.4179 11.6732 21.6867 11.6662 22.6582 11.6479C23.1438 11.6388 23.5541 11.6267 23.8525 11.6118C24.002 11.6044 24.1225 11.5961 24.209 11.5874C24.2522 11.5831 24.2854 11.5787 24.3086 11.5747C24.3375 11.5697 24.3362 11.5676 24.3242 11.5737C24.4789 11.4937 24.562 11.4085 24.6152 11.2573C24.674 11.0903 24.6982 10.838 24.6982 10.4155C24.6982 10.0819 24.6921 9.84452 24.6572 9.66943C24.6237 9.50101 24.5668 9.40968 24.4775 9.34814C24.3791 9.28031 24.2204 9.2342 23.9482 9.2085C23.6786 9.18307 23.3204 9.17904 22.8398 9.1792C22.4553 9.1792 22.1759 9.17761 21.9619 9.18408C21.747 9.19059 21.6085 9.20522 21.5049 9.23193C21.3113 9.28195 21.2247 9.3754 20.9463 9.65088C20.4271 10.1654 19.8032 10.4208 19.1621 10.4077C18.522 10.3945 17.8787 10.1145 17.3184 9.5835L16.8916 9.17822H15.5625ZM19.2061 6.75732C18.8102 6.73939 18.4022 6.94147 18.1367 7.39502C17.8378 7.90602 17.9993 8.47046 18.374 8.82959C18.7486 9.18843 19.3056 9.3143 19.7812 8.979C20.3129 8.6036 20.505 7.93776 20.2695 7.49854C20.0113 7.01622 19.6032 6.77535 19.2061 6.75732Z" fill="#2C2523" stroke="#2C2523" stroke-width="0.292131"/>
<path d="M32.6895 15.7915C33.502 15.2564 34.4137 15.2042 35.1914 15.5435C35.9676 15.8821 36.6002 16.6061 36.873 17.604L37.0156 18.1284L37.0273 18.1704L37.0137 18.2124L36.5781 19.5317L36.5732 19.5454L36.5654 19.5581C36.5497 19.5855 36.5227 19.6207 36.4941 19.6558C36.463 19.694 36.4225 19.7421 36.374 19.7974C36.2769 19.9081 36.1456 20.053 35.9902 20.2212C35.6793 20.5578 35.2688 20.9909 34.8369 21.4409C33.9745 22.3396 33.0192 23.3099 32.5869 23.7095C31.8995 24.3446 31.4528 24.8698 29.9824 26.312L28.7041 27.5669L28.6777 27.5933L28.6416 27.603L24.4775 28.7856C24.2832 28.8604 24.1057 28.8766 23.9512 28.8364C23.7911 28.7948 23.6701 28.6961 23.5908 28.5698C23.4364 28.3237 23.4401 27.9773 23.582 27.6987V27.6978C23.626 27.6119 23.6632 27.4558 23.7012 27.2915C23.7189 27.2149 23.7376 27.137 23.7559 27.0757C23.7649 27.0452 23.7754 27.0133 23.7881 26.9858C23.7949 26.9712 23.8098 26.9393 23.8379 26.9116L23.8398 26.9097C23.847 26.8929 23.8561 26.8663 23.8672 26.8306C23.8892 26.7598 23.9144 26.666 23.9404 26.5649C23.966 26.4654 23.9927 26.3588 24.0176 26.269C24.0409 26.185 24.0665 26.0986 24.0928 26.0464L24.1357 25.9253C24.1569 25.8582 24.1821 25.7708 24.2109 25.6694C24.2687 25.4666 24.3389 25.2109 24.4102 24.9507C24.4813 24.691 24.5535 24.4265 24.6172 24.2095C24.679 23.9989 24.7366 23.8177 24.7773 23.7329L24.8301 23.6548C24.8505 23.6286 24.8767 23.5965 24.9082 23.5601C24.9715 23.4868 25.059 23.3904 25.166 23.2749C25.3802 23.0438 25.6767 22.7321 26.0293 22.3677C26.735 21.6383 27.6661 20.6943 28.6074 19.7505C29.5487 18.8067 30.5013 17.8632 31.25 17.1343C31.6242 16.7699 31.948 16.4587 32.1943 16.228C32.3175 16.1127 32.422 16.0163 32.5039 15.9438C32.5829 15.874 32.6478 15.8189 32.6895 15.7915ZM35.2549 17.062C34.813 16.6247 34.154 16.4299 33.5645 16.729C33.5451 16.7389 33.4951 16.7736 33.4092 16.8442C33.3274 16.9115 33.223 17.0038 33.0977 17.1167C32.8472 17.3424 32.5191 17.6497 32.1406 18.0132C31.3838 18.74 30.4269 19.6866 29.4844 20.6362C28.5418 21.5859 27.6144 22.5386 26.917 23.2769C26.5682 23.6461 26.2771 23.9609 26.0713 24.1948C25.9684 24.3118 25.8877 24.407 25.832 24.478C25.8041 24.5137 25.7839 24.5417 25.7705 24.562C25.7592 24.5791 25.7569 24.585 25.7578 24.5825L25.6338 25.0591C25.509 25.5187 25.3928 25.8996 25.2998 26.2095C25.1732 26.6312 25.0968 26.9021 25.0889 27.0718C25.085 27.1549 25.1 27.1844 25.1064 27.1929C25.1094 27.1968 25.1229 27.2136 25.1875 27.2192C25.2547 27.225 25.3542 27.2166 25.4971 27.189C25.6381 27.1617 25.812 27.1175 26.0254 27.0591C26.794 26.8484 27.2365 26.725 27.5137 26.6362C27.7887 26.5482 27.8913 26.4978 27.9854 26.437C28.0024 26.426 28.0478 26.3888 28.126 26.3188C28.2008 26.2519 28.2987 26.1615 28.416 26.0503C28.6504 25.828 28.9608 25.5249 29.3223 25.1685C30.045 24.4557 30.9686 23.5293 31.8838 22.6001C32.7992 21.6707 33.7066 20.7386 34.3965 20.0171C34.7413 19.6564 35.0316 19.3482 35.2412 19.1196C35.346 19.0054 35.4299 18.9116 35.4902 18.8413C35.5205 18.8061 35.5445 18.778 35.5615 18.7563C35.5793 18.7337 35.5849 18.7241 35.585 18.7241C35.8896 18.1473 35.6967 17.4994 35.2549 17.062Z" fill="#2C2523" stroke="#2C2523" stroke-width="0.292131"/>
<path d="M11.6074 16.6021L26.7422 16.605H26.8115L26.8555 16.6587L27 16.8354V16.8364C27.093 16.9512 27.1726 17.0714 27.168 17.2114C27.1633 17.3515 27.0764 17.467 26.9756 17.5757L26.8125 17.7515L26.7686 17.7983H11.5723L11.5283 17.7485L11.3887 17.5864C11.2877 17.47 11.2252 17.3384 11.2217 17.1958C11.2191 17.088 11.2503 16.9859 11.3076 16.8921L11.373 16.8013L11.4951 16.6548L11.5381 16.6021H11.6074Z" fill="#2C2523" stroke="#2C2523" stroke-width="0.292131"/>
<path d="M23.542 21.4307L23.583 21.4658L23.7803 21.6318L23.875 21.7236C23.9604 21.8195 24.0157 21.929 24.0234 22.0508C24.0337 22.2146 23.9551 22.362 23.8301 22.4873V22.4883L23.6719 22.6455L23.6289 22.6885H11.5498L11.5059 22.627L11.373 22.4404C11.2752 22.3031 11.2076 22.1615 11.2236 22.0107C11.2399 21.8579 11.3376 21.7375 11.4629 21.6318L11.6602 21.4658L11.7002 21.4307H23.542Z" fill="#2C2523" stroke="#2C2523" stroke-width="0.292131"/>
<path d="M16.6865 26.3848C19.4101 26.3848 20.7147 26.3793 21.3535 26.4268C21.5142 26.4387 21.6385 26.4543 21.7354 26.4756C21.8314 26.4967 21.9102 26.5252 21.9727 26.5693C22.0393 26.6165 22.0766 26.6741 22.1016 26.7314C22.1208 26.7759 22.1403 26.8442 22.1523 26.8789L22.1895 27.0146C22.1966 27.0622 22.1958 27.1124 22.1797 27.1641C22.1653 27.2103 22.14 27.2526 22.1084 27.293L21.999 27.4121L21.7695 27.6416H11.6084L11.5654 27.5947L11.4082 27.4238C11.2973 27.304 11.2139 27.1718 11.2217 27.0166C11.2294 26.865 11.3224 26.7357 11.4424 26.6152L11.6309 26.4268L11.6738 26.3848H16.6865Z" fill="#2C2523" stroke="#2C2523" stroke-width="0.292131"/>
<g clip-path="url(#clip0_2976_13715)">
<g filter="url(#filter0_fg_2976_13715)">
<path d="M30.5723 16.2295C30.5723 16.2294 30.5723 16.2294 30.5723 16.2294" stroke="url(#paint0_linear_2976_13715)" stroke-opacity="0.51" stroke-width="11.3607" stroke-linecap="round" stroke-linejoin="round"/>
</g>
</g>
<defs>
<filter id="filter0_fg_2976_13715" x="13.9357" y="-0.405602" width="33.2712" height="33.2717" filterUnits="userSpaceOnUse" color-interpolation-filters="sRGB">
<feFlood flood-opacity="0" result="BackgroundImageFix"/>
<feBlend mode="normal" in="SourceGraphic" in2="BackgroundImageFix" result="shape"/>
<feGaussianBlur stdDeviation="0.486885" result="effect1_foregroundBlur_2976_13715"/>
<feTurbulence type="fractalNoise" baseFrequency="0.14497920870780945 0.14497920870780945" numOctaves="3" seed="450" />
<feDisplacementMap in="effect1_foregroundBlur_2976_13715" scale="21.909835815429688" xChannelSelector="R" yChannelSelector="G" result="displacedImage" width="100%" height="100%" />
<feMerge result="effect2_texture_2976_13715">
<feMergeNode in="displacedImage"/>
</feMerge>
</filter>
<linearGradient id="paint0_linear_2976_13715" x1="30.5723" y1="16.2294" x2="30.5723" y2="16.2295" gradientUnits="userSpaceOnUse">
<stop stop-color="#E9A382" stop-opacity="0.72"/>
<stop offset="1" stop-color="#DF6127" stop-opacity="0.59"/>
</linearGradient>
<clipPath id="clip0_2976_13715">
<rect width="22.7213" height="21.0984" fill="white" transform="translate(19.2129 5.68018)"/>
</clipPath>
</defs>
</svg>
